<svg width="181" height="26" viewBox="0 0 181 26" fill="none" xmlns="http://www.w3.org/2000/svg">
<path fill-rule="evenodd" clip-rule="evenodd" d="M179.145 2.0689C178.256 1.18247 177.052 0.739258 175.534 0.739258C173.978 0.739258 172.747 1.19171 171.839 2.0966C170.95 3.00149 170.506 4.22033 170.506 5.75311C170.506 7.30435 170.95 8.52319 171.839 9.40962C172.747 10.296 173.969 10.7393 175.506 10.7393C176.265 10.7393 176.95 10.6192 177.561 10.3791C178.173 10.1391 178.691 9.79743 179.117 9.35422C179.561 8.911 179.904 8.38469 180.145 7.77527C180.385 7.14738 180.506 6.45486 180.506 5.69771C180.506 4.16493 180.052 2.95532 179.145 2.0689ZM178.423 8.6617C177.737 9.38192 176.765 9.74203 175.506 9.74203C174.228 9.74203 173.247 9.40038 172.561 8.7171C171.876 8.01534 171.534 7.01811 171.534 5.72541C171.534 4.50657 171.876 3.52781 172.561 2.78912C173.247 2.05043 174.228 1.68109 175.506 1.68109C176.784 1.68109 177.765 2.0412 178.45 2.76142C179.135 3.46317 179.478 4.45117 179.478 5.72541C179.478 6.96271 179.126 7.94147 178.423 8.6617ZM176.45 6.25172C177.265 5.99318 177.673 5.46687 177.673 4.67278C177.673 4.02642 177.469 3.58321 177.061 3.34314C176.673 3.10306 176.154 2.98302 175.506 2.98302H173.506V8.44009H174.561V6.41793H175.117H175.367L176.7 8.44009H177.978L176.45 6.25172ZM176.173 5.4207C175.932 5.51303 175.682 5.5592 175.423 5.5592H174.561V3.86945H175.423C175.774 3.86945 176.052 3.93409 176.256 4.06336C176.46 4.17416 176.561 4.39577 176.561 4.72818C176.561 5.07905 176.432 5.30989 176.173 5.4207ZM86.4628 15.637C86.9513 15.6391 87.094 15.4164 87.0888 14.9787C87.0856 14.711 87.0889 14.4429 87.0923 14.1749V14.1748V14.1747V14.1746C87.0987 13.6657 87.1051 13.1571 87.0661 12.6518C87.051 12.4562 86.7266 12.1273 86.5415 12.1254C83.6435 12.0943 80.7448 12.0995 77.8465 12.1271C77.6733 12.1289 77.3602 12.3839 77.3537 12.5314C77.3206 13.2851 77.3243 14.0403 77.3282 14.8321V14.8323V14.8325V14.8328V14.8348V14.8368C77.3294 15.0969 77.3307 15.3609 77.3307 15.6301C78.1005 15.6301 78.8661 15.6296 79.6285 15.6292C81.926 15.628 84.1944 15.6267 86.4628 15.637ZM79.9629 4.49014C80.5557 4.49014 81.1485 4.48848 81.7412 4.48681C83.294 4.48246 84.8468 4.4781 86.3991 4.50364C87.0304 4.51406 87.2206 4.2691 87.203 3.69199C87.1858 3.12627 87.1774 2.55457 87.2381 1.99347C87.317 1.26341 87.0873 0.97293 86.31 1.00225C85.173 1.04531 84.0343 1.04149 82.8957 1.03767C82.5092 1.03638 82.1227 1.03508 81.7364 1.03562C81.1251 1.03645 80.5138 1.03806 79.9025 1.03967C77.8256 1.04515 75.7488 1.05062 73.6723 1.02559C72.9959 1.01749 72.7341 1.24123 72.7716 1.90687C72.8076 2.55129 72.824 3.20014 72.7906 3.84418C72.7611 4.41202 73.0142 4.53643 73.527 4.53161C75.0983 4.51664 76.6696 4.51894 78.2409 4.52125C78.8149 4.52209 79.3889 4.52293 79.9629 4.52293V4.49014ZM72.8491 5.719H76.2821C76.2821 6.47544 76.2827 7.22332 76.2834 7.96528V7.96742V7.96954V7.97165C76.2849 9.62037 76.2863 11.2399 76.2803 12.8595L76.2778 13.5281C76.269 15.938 76.2601 18.348 76.2163 20.7575C76.2036 21.4675 76.5966 21.4771 77.1045 21.474C78.1274 21.468 79.1504 21.4655 80.1734 21.4631C82.1759 21.4584 84.1784 21.4536 86.1804 21.4216C86.8655 21.4108 87.1201 21.6054 87.0719 22.288C87.0263 22.9316 87.0092 23.5843 87.0641 24.2259C87.1154 24.8273 86.8873 24.9849 86.3233 24.9779C83.9981 24.9498 81.6723 24.9481 79.3468 24.9465L79.1088 24.9463C78.4655 24.9459 77.8221 24.9515 77.1787 24.9572L77.1782 24.9572C76.3738 24.9643 75.5694 24.9714 74.7651 24.9665C73.2048 24.9575 72.5546 24.1721 72.602 22.6192C72.6494 21.0633 72.6545 19.5062 72.6597 17.9491V17.9482C72.6622 17.1774 72.6648 16.4066 72.6724 15.6359C72.7035 12.5129 72.7397 9.39013 72.7781 6.26736C72.7795 6.14781 72.7995 6.02844 72.8203 5.9038C72.8304 5.84363 72.8406 5.78223 72.8491 5.719ZM110.76 13.0146C110.611 17.6721 114.465 21.3621 118.728 21.4486C123.993 21.5553 127.742 17.9415 127.735 12.7416C127.73 8.25016 124.197 4.54222 119.434 4.46331C115.001 4.38999 110.543 8.31112 110.76 13.0146ZM119.084 24.9632C114.289 24.8025 110.849 22.6181 108.616 18.5953C107.138 15.9334 106.872 12.9909 107.693 10.0238C109.769 2.52551 117.664 -1.01516 124.539 2.17302C129.746 4.58756 132.312 10.2923 130.766 16.1445C129.457 21.0976 124.405 25.2599 119.084 24.9632ZM68.5761 24.9217H65.0368C65.0368 24.5373 65.0363 24.1573 65.0358 23.7803V23.7775C65.0345 22.9248 65.0333 22.0877 65.0385 21.2506C65.0414 20.7912 65.0501 20.3317 65.0588 19.8723V19.8722V19.8722V19.8721V19.872V19.8719V19.8719V19.8718V19.8717V19.8716V19.8716V19.8715C65.0722 19.1667 65.0855 18.4619 65.0779 17.7573C65.0528 15.4573 63.3395 13.8796 60.9963 13.9323C60.099 13.9523 59.2012 13.9473 58.2838 13.9422H58.2836H58.2834H58.2831H58.2829H58.2826H58.2824H58.2822L58.2819 13.9422C57.8639 13.9399 57.4419 13.9376 57.014 13.9376V10.6991C57.2004 10.6991 57.3853 10.7029 57.5691 10.7067C57.9668 10.7148 58.359 10.7229 58.7481 10.6921C60.8152 10.5287 62.2057 7.98106 61.0309 6.34163C60.4353 5.51068 59.4521 4.95854 58.326 5.0667C57.3004 5.16523 56.397 5.59185 55.973 6.6008C55.7446 7.14464 55.5984 7.76511 55.5899 8.3535C55.5322 12.3803 55.4985 16.4074 55.4647 20.4346L55.4647 20.4362V20.4365V20.4368V20.4371V20.4374V20.4377V20.438V20.4384V20.4387V20.439V20.4393V20.4396C55.4552 21.5751 55.4456 22.7107 55.4356 23.8463C55.4336 24.0804 55.4341 24.3144 55.4346 24.5724C55.4349 24.7007 55.4352 24.835 55.4352 24.9782H51.9528C51.9528 24.847 51.9526 24.7172 51.9525 24.5882V24.5856V24.5852V24.5848V24.5844V24.584V24.5837V24.5833V24.5829V24.5825V24.5821C51.9521 24.3128 51.9518 24.0473 51.953 23.7818C51.9587 22.424 51.9633 21.0663 51.9678 19.7086V19.7086V19.7085V19.7085V19.7084V19.7084V19.7084V19.7083V19.7083V19.7082V19.7082V19.7082L51.9678 19.7064L51.9679 19.7047L51.9679 19.7029L51.9679 19.7012L51.9679 19.6994L51.9679 19.6977L51.9679 19.696L51.9679 19.6942L51.9679 19.6925L51.9679 19.6907L51.968 19.689C51.9799 16.1151 51.9918 12.5413 52.0267 8.96756C52.0431 7.2932 52.1624 5.61733 53.3116 4.23933C54.9194 2.31165 56.9581 1.38103 59.4607 1.74328C61.9262 2.10023 63.7138 3.46653 64.5893 5.81667C65.1539 7.33152 65.0037 8.91112 64.3331 10.391C64.099 10.9077 64.1838 11.0746 64.6829 11.3592C66.9256 12.6383 68.3975 14.5222 68.5432 17.1744C68.6228 18.626 68.6063 20.0828 68.5897 21.5396C68.5824 22.1853 68.5751 22.8309 68.5761 23.4761C68.5765 23.7722 68.5764 24.0683 68.5762 24.3887L68.5761 24.9217ZM93.263 18.0464H89.9567C89.9504 18.1321 89.9425 18.2064 89.9354 18.273L89.9353 18.2732C89.9221 18.397 89.9116 18.4943 89.92 18.5901C90.1421 21.1475 91.4373 23.0641 93.6942 24.1774C96.0507 25.3396 98.4752 25.2733 100.704 23.7379C104.917 20.8364 105.007 15.0835 100.756 12.0776C99.6372 11.2861 98.3657 11.0072 97.0202 10.9618C95.8462 10.9224 94.8822 10.4633 94.3404 9.39098C93.8086 8.33776 93.8943 7.28001 94.6008 6.31611C95.3493 5.29538 96.4069 4.89879 97.6164 5.12485C98.8188 5.34958 99.7149 6.04247 99.955 7.31929C100.046 7.80218 100.258 7.94891 100.72 7.92512L100.861 7.91784C101.474 7.88602 102.093 7.8539 102.699 7.91511C103.406 7.98612 103.553 7.67357 103.447 7.0836C103.243 5.942 102.776 4.92844 102.06 4.00496C100.482 1.97085 97.8505 1.18448 95.0564 1.96028C92.8714 2.56687 90.7906 4.99888 90.5415 7.20749C90.0681 11.402 93.4147 14.4271 96.7263 14.4068C98.8649 14.3936 100.195 15.6797 100.361 17.7117C100.472 19.082 99.9432 20.2149 98.7535 20.9193C97.5969 21.6041 96.3582 21.7008 95.1327 21.0183C93.9733 20.3728 93.4889 19.2867 93.263 18.0464ZM10.1204 16.8187L10.9864 14.467C12.4795 10.4118 13.9726 6.35669 15.4754 2.30519C15.5456 2.11567 15.7412 1.83848 15.8867 1.8333C16.712 1.80308 17.5384 1.8061 18.4262 1.80934H18.4262H18.4262H18.4263H18.4263H18.4263H18.4264H18.4264H18.4264H18.4265C18.7106 1.81038 19.001 1.81144 19.2997 1.81144C19.1108 2.3194 18.9263 2.81427 18.745 3.30025L18.7414 3.3101L18.7393 3.31554L18.7367 3.32248L18.7366 3.32281C18.3353 4.39892 17.9501 5.43168 17.5708 6.4666C16.8699 8.37882 16.1724 10.2922 15.4749 12.2056L15.4739 12.2085C15.125 13.1656 14.7761 14.1227 14.4268 15.0797C14.1496 15.839 13.874 16.599 13.5985 17.3589L13.5985 17.3591C12.7712 19.641 11.9439 21.9228 11.0712 24.187C10.8697 24.7101 10.4093 25.2662 9.92091 25.5144C9.15518 25.9035 8.31466 25.3829 7.94614 24.4266C7.30012 22.7505 6.67782 21.0645 6.07292 19.3727C4.90567 16.1087 3.74921 12.841 2.59272 9.57323L2.59265 9.57305L1.98185 7.84734C1.37408 6.13072 0.771665 4.41217 0.174605 2.69171C0.126165 2.55223 0.0982881 2.40552 0.0638967 2.22453C0.045741 2.12898 0.02577 2.02387 0 1.90524C0.293111 1.90524 0.581663 1.90136 0.866683 1.89753L0.866702 1.89753H0.866706C1.6095 1.88754 2.32831 1.87788 3.04133 1.93804C3.31386 1.96087 3.67875 2.33416 3.78776 2.62669C4.32038 4.05773 4.82618 5.49889 5.33198 6.94008C5.58297 7.6552 5.83395 8.37032 6.08822 9.08422C7.03487 11.7415 7.9884 14.3962 8.94883 17.0485C9.03656 17.2908 9.14787 17.5246 9.28968 17.8223L9.28973 17.8224L9.28973 17.8224L9.28974 17.8224L9.28979 17.8225C9.36619 17.983 9.45145 18.162 9.54665 18.371L9.71997 17.9026L9.72022 17.9019C9.87695 17.4784 9.99898 17.1487 10.1204 16.8187ZM149.193 2.58012V2.56273V2.54543V2.52822V2.5111V2.49408C149.194 2.22506 149.194 1.95001 149.194 1.66669L148.458 1.66649C147.968 1.6663 147.517 1.66611 147.066 1.66688C146.108 1.66858 145.151 1.66886 144.194 1.66913C141.765 1.66982 139.336 1.67052 136.907 1.69458C135.43 1.70928 134.866 2.26632 134.72 3.69004C134.7 3.8864 134.698 4.0851 134.695 4.2828V4.28322L134.695 4.29589C134.684 5.22618 134.672 6.15646 134.661 7.08675V7.08697V7.08719V7.08741V7.08763V7.08784V7.08806V7.08828V7.0885C134.63 9.51839 134.6 11.9483 134.58 14.3783C134.567 15.9837 134.563 17.5892 134.559 19.1947C134.556 20.4953 134.552 21.796 134.544 23.0966L134.544 23.1221C134.538 24.0519 134.535 24.5237 134.77 24.7581C135.011 24.9996 135.505 24.9892 136.506 24.9681L136.508 24.9681L136.509 24.968C138.082 24.9349 138.097 24.9346 138.117 23.3806C138.188 17.7707 138.25 12.1607 138.309 6.55065C138.311 6.36224 138.309 6.19837 138.308 6.05583V6.05554V6.05527V6.05502V6.05478V6.05456V6.05435V6.05416C138.303 5.61178 138.301 5.37521 138.417 5.24818C138.552 5.10217 138.843 5.10089 139.47 5.09812C139.577 5.09765 139.694 5.09714 139.822 5.09585C141.682 5.07704 143.542 5.06931 145.401 5.06158H145.401C146.411 5.05739 147.421 5.05319 148.43 5.04723C148.474 5.04697 148.519 5.04816 148.563 5.04935C148.878 5.05773 149.198 5.06624 149.196 4.57102C149.192 3.92017 149.193 3.26931 149.193 2.58012ZM17.7512 10.6943L18.8222 13.9618L20.1879 18.1279L20.4017 18.1391C20.4344 18.0721 20.4693 18.006 20.5042 17.9398C20.579 17.7978 20.6538 17.6558 20.7073 17.5058C21.0851 16.4444 21.4602 15.3819 21.8352 14.3194L21.8354 14.319L21.8356 14.3185L21.8357 14.3181L21.8359 14.3176L21.836 14.3172L21.8362 14.3167L21.8364 14.3163L21.8365 14.3157C22.3512 12.8578 22.8659 11.3999 23.3878 9.94469C23.7817 8.8461 24.1816 7.74976 24.5814 6.65343C25.0891 5.26153 25.5968 3.86963 26.0922 2.47316C26.2923 1.90933 26.5808 1.63704 27.197 1.66881C27.8015 1.70007 28.4079 1.69357 29.0617 1.68655C29.3544 1.68342 29.6567 1.68017 29.9725 1.68017C29.8619 2.00776 29.7586 2.32059 29.6587 2.62293L29.6586 2.62329C29.4513 3.25086 29.2589 3.83325 29.0481 4.40863C28.6434 5.51345 28.2328 6.616 27.8223 7.71854L27.8222 7.71876L27.8221 7.71898L27.822 7.71919L27.8219 7.71941L27.8219 7.71963L27.8218 7.71976L27.8218 7.71989L27.8218 7.71993L27.8217 7.72013C27.2993 9.12292 26.7769 10.5257 26.2666 11.9331C25.5618 13.8765 24.8691 15.8244 24.1763 17.7723L24.176 17.7733L24.1758 17.7739L24.1756 17.7745C23.792 18.8532 23.4084 19.9318 23.0227 21.0097C22.6237 22.1246 22.2186 23.2371 21.8081 24.3476C21.5557 25.0304 21.1688 25.5729 20.3804 25.6382C19.5141 25.7098 19.0784 25.1344 18.8094 24.435C18.2281 22.9247 17.6873 21.3977 17.1554 19.8682C16.7667 18.7509 16.3908 17.6273 16.0692 16.4888C15.9654 16.1214 15.9496 15.6616 16.0694 15.3059C16.4324 14.2281 16.8307 13.1626 17.2568 12.0226C17.4178 11.592 17.5827 11.1509 17.7512 10.6943ZM48.5153 5.14961C48.9826 5.00569 49.4625 4.85787 49.9519 4.6877C49.9519 4.49487 49.9515 4.28784 49.9512 4.07047V4.06925V4.06799V4.06669V4.06535V4.06397V4.06254C49.9503 3.48019 49.9493 2.82408 49.9538 2.16798C49.9564 1.7677 49.7544 1.62403 49.3739 1.67682C49.1615 1.70636 48.9482 1.73241 48.735 1.75845C48.261 1.81633 47.787 1.87421 47.3214 1.97057C43.0181 2.86088 38.9324 6.56033 38.1706 11.1444C37.426 15.625 38.6811 19.4374 42.2783 22.3995C44.2607 24.0319 46.5638 24.8195 49.1189 24.9748C49.6297 25.0059 49.8004 24.8227 49.7766 24.3257C49.7425 23.619 49.7335 22.907 49.7827 22.2023C49.8177 21.7017 49.6552 21.5472 49.1528 21.5229C43.999 21.2739 40.2353 16.3449 41.8178 10.8895C42.4295 8.78065 43.8149 7.21892 45.7088 6.20738C46.5643 5.75052 47.5106 5.45907 48.5153 5.14961ZM151.361 4.60646V1.13676C151.541 1.13676 151.718 1.13651 151.893 1.13627C152.277 1.13574 152.651 1.13523 153.026 1.13733C153.446 1.1397 153.865 1.14113 154.285 1.14256C155.396 1.14634 156.507 1.15013 157.617 1.17129C159.231 1.20179 159.832 1.82233 159.817 3.41581C159.794 5.77511 159.769 8.13441 159.743 10.4937C159.712 13.4333 159.681 16.373 159.654 19.3126C159.638 20.9594 159.638 22.6064 159.66 24.2528C159.667 24.7855 159.493 24.9775 158.923 24.9403C158.188 24.8925 157.445 24.9192 156.708 24.9633C156.134 24.9974 155.917 24.8233 155.927 24.2298C155.975 21.2086 156.005 18.1873 156.034 15.1659L156.034 15.159V15.1587V15.1584V15.1581V15.1578V15.1575C156.042 14.2731 156.051 13.3887 156.06 12.5044C156.067 11.8098 156.073 11.1152 156.079 10.4207C156.093 8.67188 156.108 6.92311 156.143 5.17483C156.154 4.62084 155.842 4.60511 155.443 4.60569C154.472 4.60708 153.5 4.60686 152.506 4.60663L151.361 4.60646ZM30.7182 25.6442H34.5097C34.5097 25.0379 34.5092 24.4411 34.5087 23.8509L34.5087 23.8437V23.8414C34.5076 22.5591 34.5066 21.3076 34.5108 20.0561C34.5282 14.8851 34.5481 9.71398 34.5733 4.54322C34.5753 4.10578 34.5913 3.66848 34.6072 3.23114C34.6176 2.9466 34.628 2.66205 34.6345 2.37744C34.6463 1.87458 34.4332 1.63377 33.8517 1.66985C33.0928 1.71713 32.3276 1.71346 31.5672 1.68297C31.008 1.66059 30.7974 1.85046 30.7986 2.39017C30.7999 2.93053 30.7779 3.4709 30.7559 4.01129L30.7559 4.01137L30.7559 4.01145C30.7358 4.50417 30.7158 4.99691 30.7134 5.4897C30.6809 12.0349 30.6592 18.5801 30.6387 25.1253C30.6383 25.2413 30.662 25.3574 30.6863 25.4759C30.6976 25.5314 30.7091 25.5874 30.7182 25.6442ZM149.192 11.1078C149.19 10.8531 149.187 10.5931 149.187 10.3258C148.584 10.3258 147.987 10.3256 147.394 10.3254C144.797 10.3244 142.284 10.3235 139.772 10.3417C139.584 10.3431 139.241 10.5661 139.235 10.6967C139.2 11.4317 139.204 12.1683 139.208 12.8859V12.8861V12.8863L139.208 12.8919C139.209 13.1135 139.21 13.3333 139.21 13.5507C139.265 13.5742 139.306 13.5943 139.338 13.6101C139.389 13.6351 139.418 13.6494 139.447 13.6494L140.656 13.6514C143.317 13.6563 145.978 13.6611 148.639 13.6343C148.824 13.6323 149.15 13.3029 149.162 13.1126C149.203 12.4595 149.198 11.804 149.192 11.1084V11.1081V11.1078ZM164.455 1.15643C164.455 1.40536 164.457 1.64804 164.459 1.88606V1.88623C164.464 2.53963 164.469 3.15799 164.433 3.77437C164.423 3.94702 164.137 4.23938 163.964 4.24867C162.997 4.3002 162.025 4.3009 161.057 4.26813C160.896 4.26269 160.617 4.01135 160.61 3.86481C160.578 3.20408 160.582 2.54199 160.586 1.86049V1.85945C160.588 1.62759 160.589 1.39349 160.589 1.15643H164.455Z" fill="#1D3E83"/>
</svg>
